<?xml version="1.0" encoding="UTF-8"?>
<svg version="1.1" xmlns="http://www.w3.org/2000/svg" width="512" height="512">
<path d="M0 0 C168.96 0 337.92 0 512 0 C512 168.96 512 337.92 512 512 C343.04 512 174.08 512 0 512 C0 343.04 0 174.08 0 0 Z " fill="#AD1A17" transform="translate(0,0)"/>
<path d="M0 0 C168.96 0 337.92 0 512 0 C512 168.96 512 337.92 512 512 C343.04 512 174.08 512 0 512 C0 343.04 0 174.08 0 0 Z M72 90 C64.23520663 99.6643351 61.54450589 107.53002162 61.61231995 119.79037476 C61.60693441 120.96213402 61.60154887 122.13389329 61.59600013 123.34116042 C61.58420713 126.57614102 61.5857738 129.81078926 61.59316695 133.04577255 C61.59790926 136.54144912 61.58537937 140.03707117 61.57514954 143.5327301 C61.55797666 150.37438691 61.55711841 157.21595181 61.56236244 164.05762456 C61.56640838 169.62038207 61.56495555 175.18311247 61.55961418 180.74586868 C61.55886576 181.53842621 61.55811734 182.33098374 61.55734624 183.14755816 C61.55581471 184.75778758 61.55427637 186.368017 61.55273127 187.97824641 C61.53901157 203.06988156 61.54444007 218.16146484 61.55591648 233.2530988 C61.56584717 247.04868688 61.55291011 260.84414081 61.52898229 274.63970821 C61.50457806 288.81715929 61.49498674 302.99454793 61.50163502 317.1720196 C61.50512444 325.12671664 61.50291352 333.08131054 61.48538399 341.03599167 C61.47064538 347.80799479 61.47004808 354.57982215 61.4874549 361.35182188 C61.49595395 364.8042807 61.49814176 368.25642576 61.48280334 371.70886803 C61.46960383 375.45809321 61.48113359 379.20646911 61.49879456 382.95565796 C61.48918955 384.03777475 61.47958454 385.11989154 61.46968848 386.23479974 C61.53802993 393.30070638 62.99427936 398.63121168 66 405 C66.61875 406.5778125 66.61875 406.5778125 67.25 408.1875 C71.40536979 414.86577288 77.37726145 419.0808117 85 421 C89.46700861 421.4163739 93.90907374 421.37948261 98.39257812 421.34057617 C99.73364238 421.33972865 101.07470803 421.34020747 102.41577148 421.34190369 C106.03514081 421.34276021 109.6542085 421.32519059 113.27350807 421.30418181 C117.06379265 421.28535738 120.85408506 421.28366005 124.64440918 421.28010559 C131.81240083 421.27080199 138.9802543 421.2462112 146.14818525 421.21605712 C154.31264571 421.18246047 162.47711296 421.1660139 170.6416254 421.15097082 C187.42783329 421.11965999 204.21389352 421.06632427 221 421 C220.67 428.59 220.34 436.18 220 444 C216.23432617 444.00410889 212.46865234 444.00821777 208.58886719 444.01245117 C196.163568 444.02962885 183.73848941 444.07384456 171.31332016 444.13209057 C163.77802032 444.16675101 156.24290361 444.19209744 148.70751953 444.19555664 C142.14002014 444.19859511 135.5728468 444.21906924 129.00547338 444.26052457 C125.52765325 444.2818676 122.0502968 444.29444891 118.57241058 444.28615379 C114.69085867 444.27722246 110.81014138 444.30721626 106.92871094 444.34057617 C105.77424973 444.33195053 104.61978851 444.32332489 103.43034363 444.31443787 C97.30046284 444.26525209 97.30046284 444.26525209 92.26959229 447.37837219 C90.82185517 450.36785781 90.66055505 451.92156264 91.125 455.1875 C91.23070313 456.04730469 91.33640625 456.90710938 91.4453125 457.79296875 C91.84671343 460.18899635 91.84671343 460.18899635 94 462 C96.42609315 462.30496621 96.42609315 462.30496621 99.2977438 462.25447559 C100.42849596 462.26030779 101.55924813 462.26613998 102.72426552 462.27214891 C104.60345832 462.26647992 104.60345832 462.26647992 106.52061462 462.26069641 C107.85664015 462.26371443 109.19266396 462.26760215 110.52868468 462.27228898 C114.21251357 462.28262287 117.89624574 462.28037355 121.58008277 462.27610838 C125.54811473 462.27365088 129.51612279 462.28264313 133.48414612 462.29014587 C141.26273487 462.30292219 149.04128914 462.30468293 156.81988662 462.30234561 C163.13989804 462.30056556 169.45989897 462.30230535 175.77990913 462.30657005 C177.12702897 462.30746284 177.12702897 462.30746284 178.50136336 462.30837366 C180.3255711 462.30958536 182.14977884 462.31079949 183.97398657 462.31201603 C201.0974127 462.32290287 218.22081915 462.32072367 235.34424639 462.31463119 C251.023444 462.30946099 266.7025795 462.32071815 282.38176482 462.33972941 C298.46531502 462.35908208 314.54883579 462.36736833 330.63239771 462.36360615 C339.6684397 462.3616902 348.70442882 462.36421992 357.74046135 462.37832069 C365.43284721 462.39020278 373.12514765 462.39167521 380.81753462 462.37953053 C384.7449675 462.37361941 388.67224391 462.37260354 392.5996666 462.38453293 C396.19151544 462.39531655 399.78307575 462.39237914 403.37491066 462.37827124 C405.29727644 462.37433469 407.21965469 462.38523255 409.14199108 462.39656812 C410.27535099 462.38936158 411.40871091 462.38215503 412.57641506 462.37473011 C413.55842685 462.37478513 414.54043864 462.37484014 415.55220836 462.37489682 C418.03271256 462.18823852 418.03271256 462.18823852 419.78819281 460.68751687 C421.77147026 457.92567969 421.82731412 455.33859371 422 452 C420.98216476 447.92865904 419.51849393 446.20345863 416 444 C413.77789616 443.56254082 413.77789616 443.56254082 411.38092041 443.63923645 C410.45827896 443.63511246 409.53563751 443.63098846 408.58503723 443.6267395 C407.07776314 443.64291824 407.07776314 443.64291824 405.54003906 443.65942383 C404.47631577 443.65898575 403.41259247 443.65854767 402.31663513 443.65809631 C398.79944527 443.66018691 395.28273163 443.68353139 391.765625 443.70703125 C389.32753764 443.71262622 386.88944691 443.71689679 384.45135498 443.71989441 C378.0331695 443.73135087 371.61518756 443.76082523 365.19708252 443.79400635 C358.64834344 443.8246898 352.09957149 443.83839607 345.55078125 443.85351562 C332.700417 443.88569396 319.85025727 443.93846871 307 444 C307 436.74 307 429.48 307 422 C347.92 422 388.84 422 431 422 C431.66 420.68 432.32 419.36 433 418 C435.05859375 416.47265625 435.05859375 416.47265625 437.4375 415.0625 C441.08886113 412.74899759 443.0775588 410.9516847 445 407 C445.556875 406.505 446.11375 406.01 446.6875 405.5 C448.27255217 403.99347548 448.27255217 403.99347548 448.1875 401.3125 C448.0946875 400.1678125 448.0946875 400.1678125 448 399 C448.66 399 449.32 399 450 399 C450.11454308 362.14964128 450.20259843 325.29930947 450.25532665 288.44880863 C450.26157988 284.09437148 450.26805153 279.73993468 450.2746582 275.38549805 C450.27596976 274.51863918 450.27728131 273.65178032 450.2786326 272.75865301 C450.30036574 258.73825158 450.33977568 244.71795307 450.38576398 230.69761262 C450.43258694 216.3023283 450.46030772 201.90709773 450.47044247 187.51174039 C450.47728955 178.63508033 450.49888421 169.75871123 450.53958233 160.88214078 C450.56609288 154.78809803 450.57398227 148.69420483 450.56750689 142.60010866 C450.56431682 139.08851177 450.56906919 135.57742188 450.59602737 132.06591606 C450.62103698 128.24714293 450.61487448 124.42959777 450.60127258 120.61079407 C450.61583679 119.51639505 450.630401 118.42199604 450.64540654 117.29443341 C450.54306874 106.60805924 447.36441151 96.79179109 440.13671875 88.78125 C439.43160156 88.1934375 438.72648437 87.605625 438 87 C437.5156889 86.58886884 437.03137779 86.17773768 436.53239059 85.75414801 C430.0899166 80.9872486 423.80600489 81.30424134 416.03222656 81.37854004 C414.61208428 81.37420711 413.19194729 81.36768756 411.77182388 81.35917997 C407.88297546 81.34222596 403.99477318 81.35634303 400.10595894 81.37569475 C395.90683672 81.39114487 391.70779249 81.37771392 387.50866699 81.36795044 C379.28797761 81.35343299 371.06753542 81.3656487 362.84686947 81.38706368 C353.27158543 81.41109063 343.69635784 81.40935826 334.12105036 81.40675777 C317.03507602 81.40306848 299.94921805 81.42388544 282.86328125 81.45800781 C266.2877305 81.49109856 249.71230187 81.50526598 233.13671875 81.49902344 C215.08268689 81.49225753 197.02870617 81.49472538 178.97468185 81.51438284 C178.01974705 81.51542232 177.06481224 81.51646181 176.08094001 81.5175328 C174.16306231 81.51962367 172.24518464 81.52173465 170.32730699 81.52386597 C163.65443895 81.53075803 156.98158667 81.53143146 150.30871582 81.52998352 C142.1755988 81.52854296 134.04258128 81.53825033 125.90949726 81.56192988 C121.76066385 81.57377985 117.61196903 81.58092169 113.46311951 81.57509232 C109.66337089 81.56991124 105.86391476 81.57864115 102.06421614 81.59836692 C100.04245563 81.60533348 98.02066096 81.59767003 95.99890518 81.58944559 C86.57196538 81.66004644 78.7131336 82.69555411 72 90 Z " fill="#AD1A17" transform="translate(0,0)"/>
<path d="M0 0 C1.41784946 -0.00588885 2.83569559 -0.01262913 4.25353736 -0.02014488 C8.14056754 -0.03816985 12.02752985 -0.04373342 15.91459668 -0.04713166 C20.11036473 -0.05290117 24.30608958 -0.07002789 28.50183105 -0.08547974 C38.62732568 -0.12018626 48.75281657 -0.13581065 58.87835768 -0.14960304 C63.64934276 -0.15656978 68.42032353 -0.16572525 73.19130516 -0.17471123 C89.05380627 -0.20390566 104.91630318 -0.22870158 120.77882862 -0.23933506 C121.79342542 -0.24002575 122.80802223 -0.24071645 123.85336439 -0.24142807 C125.37885061 -0.2424661 125.37885061 -0.2424661 126.93515474 -0.24352509 C128.99588828 -0.24493707 131.05662182 -0.24635788 133.11735535 -0.24778748 C134.13954521 -0.24849265 135.16173508 -0.24919782 136.2149004 -0.24992435 C152.7815149 -0.26217735 169.34790071 -0.30498194 185.91442028 -0.36072768 C202.93042353 -0.41752046 219.94631115 -0.44798594 236.96241015 -0.45234722 C246.51347605 -0.45542795 256.06422394 -0.46990775 265.61519814 -0.51362801 C273.74688466 -0.55074753 281.87816701 -0.5639006 290.00992612 -0.54592312 C294.15724548 -0.53747611 298.30373967 -0.54027249 302.45095062 -0.57374191 C306.25182159 -0.60414444 310.05125897 -0.60189549 313.85213812 -0.57425391 C315.86955687 -0.56788388 317.88699513 -0.59586199 319.90420943 -0.62528044 C330.240859 -0.49609603 335.59151769 3.01815272 342.97843933 9.91261292 C349.31042684 18.38544149 350.9038098 28.63402452 350.76721191 38.89840698 C350.77148404 40.09782824 350.77575616 41.2972495 350.78015774 42.53301686 C350.78691007 45.82188081 350.77151547 49.10973151 350.74626744 52.398476 C350.72449739 55.95996864 350.73199443 59.5214215 350.73577881 63.08296204 C350.73838945 69.24012502 350.72281924 75.39702129 350.69458961 81.5541172 C350.65380225 90.45598922 350.64091689 99.35773343 350.63464966 108.25968876 C350.62373026 122.70551181 350.59052027 137.15119298 350.5431366 151.59693909 C350.49717985 165.62232254 350.46181794 179.64766733 350.44059753 193.67311096 C350.43928392 194.53891127 350.4379703 195.40471158 350.43661688 196.29674826 C350.43009127 200.6405945 350.42377283 204.98444102 350.41755736 209.32828772 C350.36579775 245.31482958 350.27779695 281.30121016 350.16593933 317.28761292 C349.50593933 317.28761292 348.84593933 317.28761292 348.16593933 317.28761292 C348.08343933 318.36011292 348.00093933 319.43261292 347.91593933 320.53761292 C347.07820731 324.72627304 346.35863965 325.62702931 343.16593933 328.28761292 C341.99031433 329.52511292 341.99031433 329.52511292 340.79093933 330.78761292 C338.16593933 333.28761292 338.16593933 333.28761292 334.91593933 335.41261292 C331.90590041 337.05825413 331.90590041 337.05825413 331.16593933 340.28761292 C290.24593933 340.28761292 249.32593933 340.28761292 207.16593933 340.28761292 C207.16593933 347.54761292 207.16593933 354.80761292 207.16593933 362.28761292 C210.44168884 362.26666565 213.71743835 362.24571838 217.092453 362.22413635 C227.90904407 362.15789151 238.72564404 362.11368747 249.54238415 362.08036423 C256.10133776 362.0594794 262.66008374 362.03114472 269.21891785 361.9858551 C275.54720415 361.94243034 281.87529059 361.91848255 288.20371437 361.90810394 C290.61948608 361.9007066 293.03524671 361.88626156 295.45093346 361.86469269 C298.83168145 361.83570449 302.21160095 361.83165513 305.592453 361.83351135 C306.59370712 361.81913025 307.59496124 361.80474915 308.6265564 361.78993225 C313.00890044 361.81601081 315.47316691 361.86314149 319.27600098 364.19319153 C321.78900611 366.97809279 322.0571649 368.69082101 322.31437683 372.31886292 C322.06240414 375.6608165 320.48977825 377.963774 318.16593933 380.28761292 C316.44242539 380.38674211 314.71481194 380.41500996 312.98845005 380.41624737 C311.85907223 380.41947181 310.72969442 380.42269626 309.56609303 380.42601842 C308.30970286 380.42446981 307.05331269 380.42292121 305.7588501 380.42132568 C304.42297645 380.42319185 303.08710335 380.42549177 301.75123113 380.42819101 C298.0632356 380.43433945 294.37526263 380.43417186 290.68726313 380.43299663 C286.71651329 380.43279339 282.74577085 380.43830403 278.77502441 380.4430542 C270.98928886 380.45137792 263.20356087 380.45410981 255.41782124 380.45466658 C249.09253603 380.45514092 242.76725333 380.45719154 236.44196892 380.4603672 C218.52864792 380.4691784 200.61533293 380.47378584 182.70200974 380.47303673 C181.73531403 380.47299677 180.76861831 380.47295682 179.77262878 380.47291565 C178.32082519 380.47285433 178.32082519 380.47285433 176.83969223 380.47279177 C161.14683692 380.47238514 145.45400559 380.48195759 129.76115722 380.49605402 C113.66747758 380.51039702 97.57380966 380.51732535 81.48012346 380.51646024 C72.43684308 380.51612755 63.39358783 380.51890582 54.35031319 380.52963829 C46.6516698 380.53871604 38.95306294 380.5409411 31.25441653 380.53412887 C27.32309395 380.53084982 23.39184155 380.53085646 19.46052551 380.53948212 C15.86627941 380.54728743 12.27215985 380.54597759 8.67791706 380.53719798 C6.75178402 380.5349125 4.82564724 380.54253823 2.89952904 380.55043763 C1.76754348 380.54583883 0.63555791 380.54124004 -0.53073025 380.53650188 C-1.51366383 380.53671925 -2.49659741 380.53693662 -3.50931686 380.53716058 C-5.83406067 380.28761292 -5.83406067 380.28761292 -7.83406067 378.28761292 C-8.38874817 376.08058167 -8.38874817 376.08058167 -8.70906067 373.47511292 C-8.83023254 372.6230426 -8.95140442 371.77097229 -9.07624817 370.89308167 C-8.71650063 367.02289444 -7.78739281 365.86016756 -4.83406067 363.28761292 C-0.87165981 362.50518169 3.0669752 362.59809602 7.09465027 362.62818909 C8.31443069 362.61770538 9.53421112 362.60722168 10.79095459 362.59642029 C14.13197565 362.57255951 17.47164622 362.57074549 20.81265163 362.57871413 C24.30544956 362.58183864 27.79804282 362.55680663 31.29075623 362.53475952 C37.90282079 362.49730115 44.51467968 362.4851705 51.12683988 362.48213512 C58.65530448 362.4774462 66.18356281 362.44452835 73.71193647 362.40923727 C89.19662945 362.33728152 104.68107352 362.30450911 120.16593933 362.28761292 C120.49593933 354.69761292 120.82593933 347.10761292 121.16593933 339.28761292 C118.64019005 339.30093658 118.64019005 339.30093658 116.06341553 339.31452942 C100.18752637 339.39564963 84.3117017 339.45583556 68.43565464 339.4948616 C60.27380595 339.51545944 52.11211231 339.54352661 43.95036316 339.58937073 C36.83398024 339.62932391 29.71770965 339.65506592 22.60121769 339.66396689 C18.83538873 339.66916737 15.06988103 339.68133167 11.30415535 339.71053314 C7.75415308 339.73783677 4.20460208 339.74602813 0.65450478 339.74004364 C-1.25823623 339.74165572 -3.17092894 339.76309998 -5.08354187 339.78529358 C-15.22528224 339.7370822 -22.6110561 337.26892329 -30.11140442 330.35011292 C-33.11078058 326.75902309 -34.40668518 322.68279884 -35.83406067 318.28761292 C-36.17502891 317.51705887 -36.51599715 316.74650483 -36.86729777 315.95260066 C-37.87592288 313.17221516 -38.08653288 311.16153804 -38.09132957 308.21812153 C-38.09777847 307.21459874 -38.10422736 306.21107596 -38.11087167 305.17714339 C-38.10777447 304.08182664 -38.10467726 302.98650988 -38.10148621 301.85800171 C-38.10601732 300.68880572 -38.11054843 299.51960972 -38.11521685 298.31498355 C-38.12568707 295.07329212 -38.12718667 291.83174019 -38.1248281 288.59003723 C-38.12441986 285.09227082 -38.13545987 281.59453748 -38.14494324 278.0967865 C-38.16155385 271.24471203 -38.16705285 264.39267197 -38.16816799 257.54057906 C-38.16911862 251.96917305 -38.17322963 246.39777838 -38.17956924 240.82637596 C-38.19718328 225.02469692 -38.20640808 209.22304505 -38.2049083 193.42135612 C-38.20482838 192.56954264 -38.20474847 191.71772916 -38.20466614 190.84010315 C-38.20458438 189.98724732 -38.20450262 189.13439149 -38.20441838 188.25569155 C-38.20360585 174.44051789 -38.22273474 160.62545335 -38.25094287 146.81031124 C-38.27968914 132.61940115 -38.29348215 118.42854425 -38.29175532 104.23760432 C-38.29109193 96.27279503 -38.2965616 88.30810007 -38.31811142 80.34331703 C-38.33634637 73.56027082 -38.34065179 66.77739076 -38.32709257 59.99433062 C-38.32057396 56.53581061 -38.32040497 53.07760912 -38.33779907 49.61911964 C-38.35324461 45.86317693 -38.34394632 42.10806724 -38.32853699 38.35214233 C-38.34396768 36.72589761 -38.34396768 36.72589761 -38.3597101 35.06679946 C-38.25527515 23.52415284 -34.09520287 14.77958064 -26.13874817 6.52980042 C-18.45497333 -0.60267219 -10.02402873 -0.00803317 0 0 Z M-8.20906067 30.66261292 C-9.45816223 31.78796448 -9.45816223 31.78796448 -10.73249817 32.93605042 C-16.81706342 39.74443012 -15.9829924 49.66305467 -15.98123169 58.29368591 C-15.98490838 59.27351822 -15.98858507 60.25335053 -15.99237317 61.26287472 C-16.00334678 64.53138011 -16.00724299 67.79985364 -16.01106262 71.06837463 C-16.01733182 73.41783243 -16.02397902 75.76728925 -16.03097534 78.116745 C-16.05195572 85.81692319 -16.06236892 93.51710145 -16.07234192 101.21730042 C-16.07639108 103.87184281 -16.08050805 106.52638509 -16.084692 109.18092728 C-16.10169033 120.2215765 -16.11618531 131.26222477 -16.12344074 142.30288506 C-16.12535037 145.16221493 -16.12727076 148.02154479 -16.12922668 150.88087463 C-16.12971042 151.59147506 -16.13019416 152.30207549 -16.13069256 153.03420927 C-16.13899644 164.55034484 -16.1643456 176.06637668 -16.19680736 187.58246695 C-16.22991032 199.4230405 -16.24789212 211.26356135 -16.25108498 223.10418141 C-16.25324628 229.74545042 -16.26238638 236.38658511 -16.28754616 243.02781296 C-16.31082981 249.27413439 -16.3150587 255.52018313 -16.30478477 261.76653671 C-16.30428946 264.05540881 -16.31060846 266.34429435 -16.32434082 268.63312531 C-16.34207599 271.76493297 -16.3349451 274.89576355 -16.32180786 278.02757263 C-16.33277711 278.92681485 -16.34374635 279.82605707 -16.355048 280.75254905 C-16.27782898 288.41058209 -14.30852582 295.10371561 -9.57234192 301.19776917 C-3.94937468 306.18690757 -0.43754814 308.41024981 7.16593933 308.28761292 C7.16593933 308.94761292 7.16593933 309.60761292 7.16593933 310.28761292 C45.69826006 310.31048823 84.23057977 310.3281157 122.76290591 310.33867824 C127.30919701 310.33992899 131.8554881 310.34122331 136.40177917 310.34254456 C137.75943973 310.34293802 137.75943973 310.34293802 139.14452776 310.34333944 C153.81114284 310.34769396 168.47775401 310.35558032 183.14436677 310.36476571 C198.18711092 310.37410828 213.22985301 310.37966981 228.27259994 310.38170141 C237.55913545 310.38307538 246.84565993 310.38741919 256.13219205 310.39552938 C262.49525612 310.40080427 268.85831446 310.40241551 275.22138056 310.40111429 C278.89571716 310.40047208 282.57003442 310.40147531 286.2443676 310.40681839 C290.22354214 310.41256267 294.20269126 310.41060767 298.18186951 310.40786743 C299.34917547 310.41078027 300.51648144 310.41369311 301.71916032 310.41669422 C302.78259337 310.41470318 303.84602643 310.41271213 304.94168472 310.41066074 C305.86060792 310.41104046 306.77953112 310.41142018 307.72630048 310.41181141 C310.06665195 310.29266749 311.98143558 310.14306225 314.16593933 309.28761292 C314.49593933 308.29761292 314.82593933 307.30761292 315.16593933 306.28761292 C315.90843933 305.89573792 316.65093933 305.50386292 317.41593933 305.10011292 C320.74619298 302.90517301 321.99833959 300.60993801 323.96672058 297.21339417 C325.40655376 294.90121906 327.24745058 293.20610167 329.16593933 291.28761292 C330.0657441 288.52136361 330.29293903 285.99593511 330.30016041 283.09918308 C330.30684717 281.85046511 330.30684717 281.85046511 330.31366903 280.5765205 C330.31348466 279.66710278 330.3133003 278.75768506 330.31311035 277.82070923 C330.31862538 276.36538769 330.31862538 276.36538769 330.32425183 274.88066572 C330.33528919 271.6205575 330.33913266 268.36048116 330.34294128 265.10035706 C330.34920603 262.76620889 330.35585284 260.43206172 330.362854 258.09791565 C330.38390023 250.42287389 330.39425878 242.74783193 330.40422058 235.07276917 C330.40826831 232.4294477 330.41238523 229.78612635 330.41657066 227.1428051 C330.43358366 216.14435821 330.44807517 205.14591229 330.4553194 194.14745426 C330.45722916 191.29435284 330.45914951 188.44125142 330.46110535 185.58815002 C330.46158909 184.87906514 330.46207283 184.16998025 330.46257123 183.43940794 C330.47086156 171.96707679 330.49618124 160.49485025 330.52868602 149.02256472 C330.56182237 137.23069383 330.57977422 125.43887596 330.58296365 113.64695829 C330.58512303 107.03180279 330.59423478 100.41678224 330.61942482 93.80166817 C330.64276071 87.57262654 330.64691639 81.34385831 330.63666344 75.11478424 C330.63616927 72.83523841 330.64245436 70.55567887 330.65621948 68.27617455 C331.45432639 49.49064591 331.45432639 49.49064591 324.0935564 32.90031528 C320.64346249 29.44913023 320.64346249 29.44913023 316.16593933 28.28761292 C316.16593933 27.62761292 316.16593933 26.96761292 316.16593933 26.28761292 C309.25095654 23.12170303 303.29776325 22.86277429 295.75468445 22.90666199 C294.51617721 22.90198202 293.27766997 22.89730204 292.00163221 22.89248025 C288.58029928 22.88261246 285.15946318 22.88612593 281.73816085 22.89543891 C278.04211867 22.90224207 274.34611909 22.89174191 270.65008545 22.88349915 C263.41605851 22.8701731 256.18212506 22.87303451 248.94809449 22.88173707 C243.0678157 22.88851765 237.18756307 22.88942871 231.30728149 22.88616562 C230.46974074 22.88570592 229.63219999 22.88524622 228.76927921 22.88477259 C227.06772633 22.8838134 225.36617345 22.88284076 223.66462058 22.88185482 C207.71654379 22.87330423 191.76851878 22.88312986 175.82045048 22.89925592 C162.14213048 22.9126588 148.46388686 22.91033061 134.78556824 22.89649963 C118.89378938 22.88043797 103.00205587 22.87412817 87.11027002 22.88333642 C85.41504575 22.88429205 83.71982146 22.88523516 82.02459717 22.88616562 C81.19055736 22.88662845 80.35651754 22.88709127 79.4972038 22.88756812 C73.62533221 22.89015625 67.75348944 22.88579083 61.88162231 22.87872696 C54.72384424 22.87030525 47.56616483 22.87260619 40.40839803 22.88856919 C36.75776577 22.8964429 33.10729792 22.89955896 29.45666695 22.88962173 C25.49675013 22.87900579 21.53710137 22.89169861 17.57719421 22.90666199 C16.42699657 22.89996982 15.27679893 22.89327766 14.09174681 22.8863827 C5.08438135 22.9524579 -1.38816208 24.35812305 -8.20906067 30.66261292 Z " fill="#ECD4A5" transform="translate(99.83406066894531,81.71238708496094)"/>
<path d="M0 0 C6.47450047 -0.30830955 12.16489668 -0.08184098 18 3 C20.00094825 4.86949909 21.38975976 6.75542269 23 9 C23.99 9.495 23.99 9.495 25 10 C25.81490331 12.45814239 26.40685171 14.94240127 27.0234375 17.45703125 C28.17183071 20.44744717 29.7281076 21.77526008 32 24 C32.98271574 25.84124212 33.89583484 27.72071414 34.75 29.625 C38.13620646 36.64539269 42.62953743 42.1989497 47.7734375 48 C50.6070826 51.20685689 52.73061845 53.81104088 54 58 C54.66 58 55.32 58 56 58 C59.43551614 66.12867657 60.42977421 73.56207344 60.5 82.3125 C60.51804687 83.24271973 60.53609375 84.17293945 60.5546875 85.13134766 C60.49225576 92.40854733 58.76840055 97.50079126 54.25390625 103.20703125 C53.69574219 103.73683594 53.13757813 104.26664062 52.5625 104.8125 C52.00691406 105.35519531 51.45132813 105.89789063 50.87890625 106.45703125 C44.01965682 112.08988681 37.47150006 111.63935849 29 111 C23.71321526 110.05311318 18.68643171 108.59337412 13.625 106.8125 C5.19862921 104.92383069 -2.34765889 104.9791 -10 109 C-12.7594775 109.34608832 -15.20155262 109.14474728 -18 109 C-18 109.66 -18 110.32 -18 111 C-20.77186988 111.10787818 -23.53955537 111.18723327 -26.3125 111.25 C-27.09818359 111.28351563 -27.88386719 111.31703125 -28.69335938 111.3515625 C-30.86323518 111.38849656 -32.86205473 111.37738536 -35 111 C-36.79296875 109.109375 -36.79296875 109.109375 -38 107 C-38.66773438 106.67128906 -39.33546875 106.34257812 -40.0234375 106.00390625 C-42.53263918 104.72946982 -43.25776266 103.36765411 -44.625 100.9375 C-46.2426718 97.8842328 -46.2426718 97.8842328 -49 96 C-52.53644944 85.39065167 -51.20334495 70.76814959 -46.56640625 60.71484375 C-40.23752969 49.74584323 -40.23752969 49.74584323 -35 48 C-34.90203125 47.25105469 -34.8040625 46.50210938 -34.703125 45.73046875 C-33.90991008 42.65015083 -32.96963255 41.53695784 -30.75 39.3125 C-27.29289244 35.58619144 -25.20241054 31.82371661 -23.140625 27.19921875 C-22 25 -22 25 -20.4609375 23.46484375 C-18.70889081 21.70811244 -18.20101226 20.20285273 -17.375 17.875 C-14.51611465 11.07819476 -9.06496302 6.04330868 -3 2 C-2.01 2 -1.02 2 0 2 C0 1.34 0 0.68 0 0 Z " fill="#ECD5A5" transform="translate(251,228)"/>
<path d="M0 0 C2.47803696 2.05323063 3.59716415 4.02941226 5.1875 6.8125 C6.486875 8.111875 6.486875 8.111875 7.8125 9.4375 C12.54716068 14.17216068 11.37127174 20.26920379 11.375 26.5625 C11.38724609 27.635 11.39949219 28.7075 11.41210938 29.8125 C11.42262666 35.50585501 11.30679242 40.48824254 9.1875 45.8125 C8.1975 46.3075 8.1975 46.3075 7.1875 46.8125 C6.50098179 48.37014636 5.88622148 49.95987306 5.3125 51.5625 C3.09356774 57.3235056 0.42230281 61.40987817 -4.8125 64.8125 C-7.25 65.39453125 -7.25 65.39453125 -9.8125 65.625 C-10.658125 65.71394531 -11.50375 65.80289063 -12.375 65.89453125 C-15.0855732 65.80331004 -16.55038872 65.28186246 -18.8125 63.8125 C-19.1425 63.1525 -19.4725 62.4925 -19.8125 61.8125 C-20.8025 61.4825 -21.7925 61.1525 -22.8125 60.8125 C-28.60780732 53.99464885 -29.69085613 47.56935561 -29.375 38.875 C-29.37306641 37.86759766 -29.37113281 36.86019531 -29.36914062 35.82226562 C-29.14858867 23.12010701 -25.77538071 12.93116301 -17.43359375 3.3515625 C-15.8125 1.8125 -15.8125 1.8125 -13.8125 1.8125 C-13.8125 1.1525 -13.8125 0.4925 -13.8125 -0.1875 C-9.00385086 -1.79038305 -4.64178589 -1.95986515 0 0 Z " fill="#EBD2A3" transform="translate(289.8125,161.1875)"/>
<path d="M0 0 C6.56064058 1.34219324 10.15798491 3.81370883 14.3203125 8.8671875 C15.38671875 10.48828125 15.38671875 10.48828125 15.38671875 12.48828125 C16.04671875 12.48828125 16.70671875 12.48828125 17.38671875 12.48828125 C22.63721565 25.08947382 22.31242451 43.890523 17.38671875 56.48828125 C15.56863679 60.22544973 13.81561088 63.07734147 10.38671875 65.48828125 C6.27508252 66.21295713 2.51199983 66.03696396 -1.61328125 65.48828125 C-1.61328125 64.49828125 -1.61328125 63.50828125 -1.61328125 62.48828125 C-2.35578125 62.26140625 -3.09828125 62.03453125 -3.86328125 61.80078125 C-9.03786064 59.33109563 -11.33045574 54.46703497 -13.80078125 49.48828125 C-14.30996094 48.47765625 -14.81914062 47.46703125 -15.34375 46.42578125 C-19.72835117 36.28048871 -18.95605265 19.93444189 -15.61328125 9.48828125 C-11.87659376 2.7809272 -7.86742361 -0.80722417 0 0 Z " fill="#EBD3A4" transform="translate(229.61328125,161.51171875)"/>
<path d="M0 0 C3.99404601 3.21576295 6.45999832 6.90889742 7.76171875 11.90625 C8.11027067 16.06111865 8.04563266 20.17817476 7.94921875 24.34375 C7.92891602 26.0134082 7.92891602 26.0134082 7.90820312 27.71679688 C7.87304872 30.44712212 7.82383981 33.17642744 7.76171875 35.90625 C6.77171875 35.90625 5.78171875 35.90625 4.76171875 35.90625 C4.57609375 36.72416016 4.57609375 36.72416016 4.38671875 37.55859375 C2.39542107 44.8392759 -1.70209882 50.99939024 -8.15234375 55.1328125 C-12.38664438 56.70283408 -16.81507063 56.55788371 -21.23828125 55.90625 C-24.17578125 53.65625 -24.17578125 53.65625 -26.23828125 50.90625 C-27.32109375 49.9471875 -27.32109375 49.9471875 -28.42578125 48.96875 C-33.24784057 43.48157905 -32.80741863 35.99161331 -32.6015625 29.07421875 C-31.83352516 17.22798904 -25.47800397 8.0063164 -17.23828125 -0.09375 C-11.84290174 -1.89220984 -5.22916371 -2.55526324 0 0 Z " fill="#EBD2A3" transform="translate(331.23828125,214.09375)"/>
<path d="M0 0 C6.8183799 6.17208797 12.10941359 14.95926907 14 24 C14.06926968 26.75970408 14.0941736 29.49196042 14.0625 32.25 C14.05798828 32.99507812 14.05347656 33.74015625 14.04882812 34.5078125 C14.03709246 36.3385764 14.0191585 38.16929873 14 40 C13.34 40 12.68 40 12 40 C12.144375 40.825 12.28875 41.65 12.4375 42.5 C11.78261192 47.7391046 8.80211702 50.50940097 5 54 C1.44765726 56.27714278 -1.71103274 56.34495783 -5.8828125 55.66015625 C-13.30516843 53.34580542 -17.52179418 47.57764 -21 41 C-21.35545898 40.34443115 -21.71091797 39.6888623 -22.07714844 39.01342773 C-25.11155312 32.89940373 -25.6110479 27.63966764 -25.5 20.875 C-25.51546875 19.92496094 -25.5309375 18.97492188 -25.546875 17.99609375 C-25.50545141 10.52949214 -23.843633 6.37681419 -19 0.625 C-14.00281924 -3.43520937 -5.3889219 -3.31625963 0 0 Z " fill="#EBD1A2" transform="translate(199,215)"/>
<path d="M0 0 C0.33 0 0.66 0 1 0 C1.00331015 1.20190916 1.00662029 2.40381832 1.01003075 3.64214897 C1.08910829 32.19553124 1.17835087 60.74886981 1.28005161 89.30218022 C1.29256995 92.81929176 1.30500281 96.3364036 1.31738281 99.85351562 C1.31984881 100.55368699 1.3223148 101.25385836 1.32485552 101.97524704 C1.3645412 113.30106608 1.39730705 124.62689505 1.42749982 135.95274292 C1.45865244 147.58064898 1.49742448 159.20851125 1.54279006 170.83637059 C1.56802018 177.36479757 1.58981185 183.89319498 1.60334396 190.42165756 C1.61619582 196.56935228 1.63828413 202.71694535 1.66738319 208.86458397 C1.67643451 211.1179526 1.68214348 213.37133758 1.68421364 215.62472343 C1.68755345 218.70857889 1.70307742 221.79214914 1.7215271 224.87594604 C1.71959237 225.76119048 1.71765763 226.64643492 1.71566427 227.55850494 C1.79154648 236.08143555 2.28277156 245.22290825 8.5390625 251.55859375 C15.80082965 258.22854287 22.76097926 258.29384953 32.27790833 258.27415466 C34.15042354 258.28200968 34.15042354 258.28200968 36.06076735 258.29002339 C39.51873901 258.30417814 42.97662068 258.30586716 46.43461716 258.30542648 C50.16684389 258.30707689 53.89903378 258.3201475 57.63124084 258.33161926 C65.78825398 258.35444979 73.94524106 258.36238757 82.10228181 258.36744571 C87.19702876 258.37070458 92.29176817 258.37722816 97.38651085 258.3844471 C111.49727669 258.40400942 125.60803553 258.42041614 139.7188158 258.42332363 C140.62143006 258.4235112 141.52404432 258.42369877 142.45401053 258.42389202 C144.28375447 258.42425827 146.11349841 258.42462197 147.94324235 258.42498314 C149.30563792 258.42525735 149.30563792 258.42525735 150.69555664 258.42553711 C151.60493096 258.42571766 152.51430527 258.42589821 153.45123639 258.42608423 C168.18852075 258.42962639 182.92565904 258.45665301 197.66289274 258.494035 C212.79965008 258.5321227 227.93633495 258.55148114 243.07314128 258.55178314 C251.56945681 258.55236756 260.06559803 258.56084962 268.56186867 258.58978081 C275.79582261 258.61430075 283.02953863 258.62157342 290.2635229 258.60653328 C293.95286417 258.59936714 297.64173566 258.6002084 301.33102417 258.62294388 C305.33474112 258.64738026 309.3373906 258.63289038 313.34114075 258.61473083 C314.50146263 258.6279308 315.66178452 258.64113077 316.85726768 258.65473074 C323.44675225 258.58647339 327.77149808 257.68584867 333.28097552 253.97448212 C334.13189264 253.49211347 334.13189264 253.49211347 335 253 C335.66 253.33 336.32 253.66 337 254 C334.94766315 256.2477975 333.99332739 257.0022242 331 258 C330.67 258.99 330.34 259.98 330 261 C326.98192979 262.18187306 323.98643338 262.12437456 320.77574539 262.12304783 C319.71231234 262.12503888 318.64887928 262.12702993 317.55322099 262.12908131 C316.38591502 262.12616847 315.21860905 262.12325563 314.01593018 262.12025452 C312.77519611 262.12110894 311.53446205 262.12196337 310.25612998 262.12284368 C306.81046938 262.12420763 303.36486539 262.12107616 299.91921163 262.11606562 C296.20418247 262.11175208 292.4891551 262.11320819 288.77412415 262.1139679 C282.33698359 262.11449255 275.89985316 262.11135179 269.46271515 262.10573006 C260.15566433 262.09760723 250.84861841 262.09499903 241.54156443 262.09374207 C226.44193211 262.09155278 211.34230518 262.08489603 196.24267578 262.07543945 C181.57373074 262.06626215 166.90478717 262.05918287 152.23583984 262.05493164 C151.33183108 262.05466892 150.42782231 262.05440619 149.49641934 262.05413551 C144.9613283 262.05283048 140.42623724 262.05156677 135.89114618 262.05032361 C98.26076031 262.03995483 60.63038058 262.02233986 23 262 C23 261.34 23 260.68 23 260 C21.1128125 260.061875 21.1128125 260.061875 19.1875 260.125 C13.17969482 259.45852399 9.73764493 255.95183988 5.3828125 252.03125 C0.15177227 245.37668079 -0.43991183 238.0269833 -0.36076355 229.80638123 C-0.36332682 228.81863884 -0.3658901 227.83089645 -0.36853105 226.81322247 C-0.37344764 223.52431939 -0.35701093 220.23588182 -0.34057617 216.94702148 C-0.33972944 214.58119213 -0.34020594 212.21536198 -0.34190369 209.84953308 C-0.34276326 203.44111012 -0.32514331 197.03285613 -0.30418181 190.62447238 C-0.28587285 184.60151386 -0.28431015 178.57853643 -0.2812262 172.55555523 C-0.27467087 160.63099919 -0.25473472 148.70650494 -0.22631836 136.78198242 C-0.19875396 125.20288399 -0.17753205 113.62380238 -0.16479492 102.04467773 C-0.16400675 101.33016331 -0.16321858 100.61564888 -0.16240653 99.8794825 C-0.15849123 96.29474121 -0.15470015 92.70999981 -0.15097082 89.12525833 C-0.11990353 59.41679794 -0.06686881 29.70840191 0 0 Z " fill="#BD4C3D" transform="translate(84,130)"/>
<path d="M0 0 C0 0.66 0 1.32 0 2 C-40.92 2 -81.84 2 -124 2 C-124 9.26 -124 16.52 -124 24 C-120.72425049 23.97905273 -117.44850098 23.95810547 -114.07348633 23.93652344 C-103.25689526 23.8702786 -92.44029529 23.82607456 -81.62355518 23.79275131 C-75.06460157 23.77186649 -68.50585559 23.7435318 -61.94702148 23.69824219 C-55.61873518 23.65481743 -49.29064875 23.63086964 -42.96222496 23.62049103 C-40.54645325 23.61309369 -38.13069262 23.59864864 -35.71500587 23.57707977 C-32.33425788 23.54809157 -28.95433838 23.54404222 -25.57348633 23.54589844 C-24.57223221 23.53151733 -23.57097809 23.51713623 -22.53938293 23.50231934 C-18.1570389 23.52839789 -15.69277242 23.57552857 -11.88993835 25.90557861 C-9.37693322 28.69047987 -9.10877443 30.4032081 -8.8515625 34.03125 C-9.10353519 37.37320359 -10.67616108 39.67616108 -13 42 C-14.72543567 42.09733247 -16.45489727 42.12371482 -18.1830759 42.12304783 C-19.31368712 42.12503888 -20.44429834 42.12702993 -21.6091705 42.12908131 C-22.8669249 42.12616847 -24.12467931 42.12325563 -25.42054749 42.12025452 C-26.75784607 42.1206901 -28.09514457 42.12156477 -29.43244261 42.12284368 C-33.12430397 42.12509115 -36.8161366 42.12106395 -40.50799429 42.11606562 C-44.48279232 42.11176489 -48.45758861 42.11320728 -52.43238831 42.1139679 C-59.32466583 42.11449337 -66.21693391 42.11134411 -73.10920906 42.10573006 C-83.07439872 42.09761824 -93.0395838 42.09500016 -103.00477641 42.09374207 C-119.17091147 42.09155104 -135.3370415 42.0848896 -151.50317383 42.07543945 C-167.21118138 42.06626663 -182.91918757 42.05918516 -198.62719727 42.05493164 C-199.59472111 42.05466892 -200.56224495 42.05440619 -201.5590877 42.05413551 C-206.41265614 42.05283051 -211.2662246 42.0515668 -216.11979306 42.05032361 C-256.41319887 42.03994943 -296.70659915 42.02232975 -337 42 C-337.66 40.68 -338.32 39.36 -339 38 C-338.01 38.66 -337.02 39.32 -336 40 C-333.4827003 40.30104323 -333.4827003 40.30104323 -330.6076498 40.25168228 C-329.48125668 40.25689778 -328.35486356 40.26211327 -327.19433731 40.26748681 C-325.95155472 40.26302537 -324.70877213 40.25856392 -323.42832947 40.25396729 C-322.11227346 40.25708727 -320.79621746 40.26020725 -319.44028097 40.26342177 C-315.77957904 40.27179709 -312.11898092 40.26763216 -308.45827854 40.26144934 C-304.51346361 40.25693704 -300.56866693 40.26390248 -296.62385559 40.26940918 C-288.89319417 40.27831769 -281.1625715 40.27637477 -273.43190854 40.2705839 C-267.15148215 40.26607346 -260.87106666 40.26545182 -254.59063911 40.26763153 C-253.69795671 40.267938 -252.80527431 40.26824446 -251.88554092 40.26856022 C-250.07228298 40.26919964 -248.25902505 40.26984807 -246.44576711 40.2705054 C-229.43014252 40.27621288 -212.41453946 40.26964408 -195.3989184 40.25890467 C-180.78571021 40.24996724 -166.17253379 40.25152196 -151.55932617 40.26074219 C-134.60447131 40.27143481 -117.64963532 40.27566513 -100.69477755 40.26951766 C-98.88836674 40.26888054 -97.08195593 40.26825179 -95.27554512 40.26763153 C-94.386668 40.26732298 -93.49779088 40.26701443 -92.58197809 40.26669653 C-86.30559796 40.26496667 -80.02922977 40.2678909 -73.75285149 40.27259064 C-66.10914918 40.27818822 -58.46548796 40.2767067 -50.82179039 40.26602915 C-46.91881019 40.26075748 -43.01589861 40.25874099 -39.11291885 40.26532745 C-34.89011459 40.27234611 -30.66748501 40.26399018 -26.44468689 40.25396729 C-25.19967358 40.25842873 -23.95466027 40.26289017 -22.67191929 40.26748681 C-20.98624122 40.25966357 -20.98624122 40.25966357 -19.26650906 40.25168228 C-18.29073514 40.25135758 -17.31496123 40.25103287 -16.30961841 40.25069833 C-13.80513818 40.22291997 -13.80513818 40.22291997 -12 38 C-11.64390808 35.86181539 -11.64390808 35.86181539 -11.6875 33.5 C-11.67074219 32.7059375 -11.65398437 31.911875 -11.63671875 31.09375 C-11.75660156 30.4028125 -11.87648438 29.711875 -12 29 C-15.16802145 26.8879857 -15.94942997 26.74610556 -19.57475281 26.7215271 C-20.5128479 26.71036362 -21.45094299 26.69920013 -22.41746521 26.68769836 C-23.44461136 26.68553818 -24.47175751 26.68337799 -25.5300293 26.68115234 C-26.61311371 26.67110672 -27.69619812 26.6610611 -28.81210327 26.65071106 C-32.39946959 26.61976922 -35.98676092 26.60281323 -39.57421875 26.5859375 C-42.05858511 26.56723472 -44.54294505 26.54766199 -47.02729797 26.5272522 C-52.90267652 26.48108956 -58.7780598 26.44371511 -64.65352517 26.41057932 C-71.99890354 26.36861671 -79.3441635 26.31304324 -86.68945312 26.2578125 C-99.79291416 26.16093499 -112.89641059 26.07759763 -126 26 C-126 17.75 -126 9.5 -126 1 C-110.16225957 0.86944246 -94.32451804 0.73902089 -78.48677444 0.60884857 C-71.13310931 0.54840354 -63.77944469 0.48789705 -56.42578125 0.42724609 C-50.01664668 0.3743855 -43.60751117 0.32164001 -37.19837451 0.26903296 C-33.80452324 0.24117174 -30.41067247 0.21325274 -27.01682281 0.18519592 C-23.22898988 0.15391099 -19.44115532 0.12282947 -15.65332031 0.09179688 C-14.52691132 0.08244614 -13.40050232 0.0730954 -12.23995972 0.0634613 C-10.69192154 0.05084007 -10.69192154 0.05084007 -9.11260986 0.03796387 C-8.21662708 0.03058952 -7.3206443 0.02321518 -6.39751053 0.01561737 C-4.26504591 0.00172651 -2.13250986 0 0 0 Z " fill="#CE7E63" transform="translate(431,420)"/>
<path d="M0 0 C3.76187872 3.76187872 3.11998284 8.83085843 3.1430676 13.8681463 C3.14220112 14.7787439 3.14133463 15.6893415 3.14044189 16.62753296 C3.14341302 17.60283514 3.14638414 18.57813731 3.1494453 19.5829941 C3.15812317 22.85400345 3.15963977 26.12497615 3.16113281 29.39599609 C3.16576155 31.74002663 3.17078629 34.08405642 3.17617798 36.42808533 C3.18929675 42.79789054 3.19574568 49.16768521 3.20018864 55.53750181 C3.2031196 59.51610805 3.20722441 63.49471141 3.21169281 67.47331619 C3.22388156 78.4932636 3.23418245 89.51320907 3.2375679 100.53316307 C3.23778747 101.23798562 3.23800703 101.94280817 3.23823325 102.66898898 C3.23845153 103.37547283 3.23866981 104.08195669 3.2388947 104.80984914 C3.23933816 106.24139683 3.23978473 107.67294451 3.24023438 109.10449219 C3.2404558 109.81458544 3.24067723 110.52467869 3.24090537 111.25628991 C3.24485427 122.76492268 3.26231285 134.27349217 3.2855939 145.78210048 C3.3093141 157.60335482 3.32177001 169.42457741 3.32293582 181.24585593 C3.32385207 187.88089857 3.32991124 194.51586828 3.34775543 201.15089035 C3.36421032 207.39056388 3.36640409 213.63008067 3.35761642 219.86976814 C3.35684473 222.15989285 3.36120616 224.4500259 3.37107468 226.74012947 C3.38375673 229.86644034 3.37793745 232.99219291 3.36749268 236.11849976 C3.37554908 237.02463591 3.38360548 237.93077206 3.39190602 238.86436689 C3.34917766 244.33285318 2.50036143 248.12058046 0 253 C-0.33 253 -0.66 253 -1 253 C-0.67 169.51 -0.34 86.02 0 0 Z " fill="#BD483A" transform="translate(427,123)"/>
<path d="M0 0 C1.42212439 -0.00373903 2.84424673 -0.00834156 4.26636583 -0.01373065 C8.16499301 -0.02594387 12.06353427 -0.02570219 15.9621762 -0.02334189 C20.17008969 -0.02293333 24.37797578 -0.03397635 28.58587646 -0.04345703 C36.82465932 -0.06005647 45.06341355 -0.06556601 53.30221172 -0.06668179 C59.99633247 -0.06763232 66.69044378 -0.07174288 73.38456154 -0.07808304 C92.35905641 -0.09568897 111.33352866 -0.10492238 130.30803176 -0.10342209 C131.8418084 -0.10330222 131.8418084 -0.10330222 133.40657043 -0.10317993 C134.43033416 -0.10309817 135.45409789 -0.10301641 136.50888477 -0.10293217 C153.11828284 -0.10211842 169.72759042 -0.1212801 186.33696231 -0.14945666 C203.3868368 -0.17815278 220.43666709 -0.19199891 237.48656636 -0.19026911 C247.06081772 -0.1896043 256.63497408 -0.195137 266.20920372 -0.21662521 C274.35636458 -0.23479352 282.50338733 -0.23921995 290.65055963 -0.22560637 C294.80907273 -0.21905592 298.96732051 -0.21903406 303.12580872 -0.23631287 C306.92975469 -0.25195658 310.73322304 -0.24927021 314.53715674 -0.2317446 C315.91588108 -0.22865547 317.29464031 -0.23237854 318.67332353 -0.24346475 C320.54235173 -0.25750305 322.41152476 -0.24465478 324.28055096 -0.2303524 C325.32022792 -0.23078714 326.35990487 -0.23122187 327.4310872 -0.23166978 C330.78763671 0.39006049 331.98050539 1.68382141 334.12556458 4.26742554 C333.08987367 4.10504457 332.05418276 3.94266361 330.98710728 3.77536201 C324.78796094 3.00770319 318.57801463 3.12966435 312.34088135 3.14044189 C310.94065802 3.13928856 309.54043499 3.1376996 308.1402126 3.13571465 C304.3066599 3.13155062 300.47313219 3.13359878 296.63957942 3.13670087 C292.49980479 3.13896665 288.3600344 3.1354695 284.22026062 3.13272095 C276.11630081 3.12827701 268.01235027 3.12923358 259.9083901 3.13213359 C253.32206462 3.13439286 246.73574173 3.13469787 240.14941597 3.13360977 C239.21167349 3.13345654 238.27393101 3.13330331 237.30777209 3.13314543 C235.40272148 3.1328257 233.49767087 3.13250149 231.59262026 3.13217284 C213.7341585 3.12932212 195.87570187 3.13259876 178.01724095 3.1379732 C162.6950292 3.1424416 147.37282502 3.14166422 132.0506134 3.13705444 C114.25407205 3.13170275 96.4575352 3.129596 78.66099316 3.13266671 C76.76329458 3.13298525 74.865596 3.13329963 72.96789742 3.13360977 C72.03420892 3.13376405 71.10052043 3.13391832 70.13853834 3.13407727 C63.55988137 3.13494058 56.98122725 3.13348356 50.40257072 3.13113022 C42.38584665 3.12832546 34.36913237 3.12908483 26.35240941 3.13441096 C22.26246798 3.1370387 18.17254286 3.13806869 14.08260155 3.13476181 C10.33790387 3.13177986 6.59323764 3.13342335 2.84854282 3.13873936 C0.85386947 3.14038369 -1.14080607 3.13712291 -3.13547713 3.13368213 C-13.35697654 2.58434091 -13.35697654 2.58434091 -22.31193542 6.32992554 C-22.82756042 6.96930054 -23.34318542 7.60867554 -23.87443542 8.26742554 C-24.53443542 7.93742554 -25.19443542 7.60742554 -25.87443542 7.26742554 C-18.66278713 -1.03689674 -10.28939359 -0.02422771 0 0 Z " fill="#E6C297" transform="translate(99.87443542480469,81.73257446289063)"/>
<path d="M0 0 C1.23356926 -0.00311998 2.46713852 -0.00623996 3.73808867 -0.00945449 C7.15018174 -0.01603963 10.56205384 -0.01368566 13.97413337 -0.00748205 C17.65859533 -0.00295097 21.34303819 -0.00994461 25.02749634 -0.01544189 C32.24092242 -0.02433079 39.45430685 -0.02241605 46.66773456 -0.01661661 C52.53134721 -0.0120978 58.3949482 -0.01148817 64.25856209 -0.01366425 C65.51091341 -0.01412394 65.51091341 -0.01412394 66.78856476 -0.01459293 C68.48472218 -0.01523239 70.18087959 -0.01588082 71.877037 -0.01653811 C87.7788396 -0.02224002 103.68061915 -0.01568588 119.58241797 -0.00493738 C133.22150655 0.00399636 146.86056108 0.00244728 160.49964905 -0.0067749 C176.34343688 -0.01748281 192.18720449 -0.02168899 208.03099543 -0.01555037 C209.72118 -0.01491329 211.41136457 -0.01428455 213.10154915 -0.01366425 C213.93311984 -0.01335569 214.76469053 -0.01304714 215.62146033 -0.01272924 C221.47628222 -0.01100374 227.33109127 -0.01391432 233.18591118 -0.01862335 C240.32356439 -0.02423804 247.46117362 -0.02270344 254.59882181 -0.01206186 C258.23929017 -0.00681282 261.87968526 -0.0047353 265.52015305 -0.01136017 C269.46912441 -0.01843764 273.4179763 -0.00997523 277.36694336 0 C278.51393218 -0.00446144 279.66092099 -0.00892289 280.84266704 -0.01351953 C288.0534841 0.02183971 294.57281038 0.1378652 300.7469635 4.25396729 C300.7469635 4.91396729 300.7469635 5.57396729 300.7469635 6.25396729 C301.4069635 6.25396729 302.0669635 6.25396729 302.7469635 6.25396729 C304.3719635 8.25396729 304.3719635 8.25396729 305.7469635 10.25396729 C305.4169635 10.91396729 305.0869635 11.57396729 304.7469635 12.25396729 C302.70576562 10.63801896 300.70623413 8.96832909 298.7469635 7.25396729 C298.7469635 6.59396729 298.7469635 5.93396729 298.7469635 5.25396729 C297.6125885 5.10959229 296.4782135 4.96521729 295.3094635 4.81646729 C291.7469635 4.25396729 291.7469635 4.25396729 290.7469635 3.25396729 C289.13853792 3.15419445 287.52571451 3.12473314 285.91419888 3.12253952 C284.3354094 3.1167778 284.3354094 3.1167778 282.72472519 3.11089969 C281.55413765 3.11176617 280.38355012 3.11263265 279.17749023 3.11352539 C277.94496397 3.11055427 276.71243771 3.10758315 275.44256216 3.10452199 C272.00557425 3.09731801 268.56863628 3.09466083 265.13164437 3.09392452 C261.4307188 3.09207881 257.72980417 3.08453374 254.02888489 3.07778931 C245.92742715 3.06418335 237.82597435 3.05817723 229.72450709 3.05377865 C224.66715244 3.051019 219.60979972 3.04678205 214.55244637 3.04227448 C200.55511438 3.03007688 186.55778393 3.01977982 172.56044674 3.01639938 C171.66380815 3.01617982 170.76716956 3.01596025 169.8433601 3.01573403 C168.94454263 3.01551575 168.04572517 3.01529748 167.11967081 3.01507258 C165.29825079 3.01462911 163.47683078 3.01418255 161.65541077 3.01373291 C160.75191848 3.01351148 159.84842618 3.01329005 158.91755534 3.01306191 C144.28601776 3.00911608 129.65453006 2.99167083 115.02301174 2.96837339 C100.00733468 2.94465706 84.99168263 2.93219734 69.97598654 2.93103147 C61.54283121 2.93011465 53.10974078 2.92436109 44.67660332 2.90621185 C37.49304989 2.89080679 30.30958139 2.88569264 23.12601458 2.89394996 C19.46124532 2.89785558 15.79664708 2.89693144 12.13189888 2.88289261 C8.15629963 2.86780255 4.18094075 2.87602328 0.20532227 2.88647461 C-0.94965022 2.8784182 -2.1046227 2.8703618 -3.29459435 2.86206126 C-11.27928347 2.91120098 -18.16799148 3.73673758 -24.2530365 9.44146729 C-24.8305365 9.97127197 -25.4080365 10.50107666 -26.0030365 11.04693604 C-26.4155365 11.44525635 -26.8280365 11.84357666 -27.2530365 12.25396729 C-25.68926151 8.93094543 -24.03950499 6.69212721 -21.2530365 4.25396729 C-20.5930365 4.25396729 -19.9330365 4.25396729 -19.2530365 4.25396729 C-19.2530365 3.59396729 -19.2530365 2.93396729 -19.2530365 2.25396729 C-12.82711554 -0.05894208 -6.78180423 -0.02632799 0 0 Z " fill="#C66651" transform="translate(117.25303649902344,102.74603271484375)"/>
<path d="M0 0 C44.88 0 89.76 0 136 0 C136 7.59 136 15.18 136 23 C134.3493836 24.6506164 132.42766857 24.12818504 130.15444946 24.13130188 C129.10564102 24.13531006 128.05683258 24.13931824 126.97624207 24.14344788 C125.81570816 24.14291916 124.65517426 24.14239044 123.45947266 24.1418457 C122.24494919 24.14532013 121.03042572 24.14879456 119.77909851 24.15237427 C117.13154163 24.15974757 114.48403528 24.16541294 111.83647537 24.16866493 C107.65171408 24.1745629 103.46703839 24.19109159 99.28231812 24.21000671 C97.85109144 24.21634446 96.41986471 24.22267007 94.98863792 24.22898388 C94.2717715 24.23214969 93.55490507 24.2353155 92.81631541 24.23857725 C83.06994165 24.28069557 73.32360713 24.31363384 63.57714844 24.32592773 C57.00823159 24.33429886 50.43952581 24.35675496 43.87071455 24.3952834 C40.39242951 24.41507852 36.91446025 24.42743745 33.43611526 24.42244911 C29.5569745 24.41695396 25.67836879 24.44216388 21.79931641 24.4699707 C20.64283096 24.46336929 19.48634552 24.45676788 18.29481506 24.44996643 C16.71314293 24.46866791 16.71314293 24.46866791 15.09951782 24.48774719 C14.18178904 24.49013555 13.26406025 24.4925239 12.3185215 24.49498463 C9.84610515 24.8058589 9.84610515 24.8058589 8.19959068 26.89822674 C6.8489396 29.26466921 6.67779131 30.55582616 6.8125 33.25 C6.874375 34.4875 6.93625 35.725 7 37 C6.34 36.67 5.68 36.34 5 36 C4.40029818 29.0434589 4.40029818 29.0434589 6.78361511 24.89657593 C8.62658662 22.77568828 9.67220368 22.07311634 12.44031715 21.45567703 C15.62494316 21.25894222 18.76014181 21.25855936 21.95043945 21.31884766 C23.16061234 21.3179715 24.37078522 21.31709534 25.61763 21.31619263 C28.92803108 21.31965221 32.23617548 21.34969501 35.54617715 21.39163637 C39.0081084 21.42919506 42.47007113 21.4326727 45.93217468 21.43978882 C52.48425112 21.45842287 59.03572546 21.50763935 65.58753699 21.56788576 C73.04812708 21.6349966 80.50874623 21.66795122 87.96956313 21.69805837 C103.31340008 21.76074056 118.65659867 21.86745768 134 22 C134 15.07 134 8.14 134 1 C89.78 1 45.56 1 0 1 C0 0.67 0 0.34 0 0 Z " fill="#BE4E3F" transform="translate(85,421)"/>
<path d="M0 0 C43.75545767 -0.09149458 87.51090524 -0.16200772 131.26643966 -0.20426132 C136.42860316 -0.20926433 141.59076647 -0.2144416 146.75292969 -0.21972656 C147.78065193 -0.2207758 148.80837417 -0.22182505 149.86723951 -0.22290608 C166.52233864 -0.24032579 183.17738272 -0.27187208 199.83244917 -0.30861118 C216.91373249 -0.34597707 233.99498692 -0.36822663 251.07630944 -0.37635398 C261.62199605 -0.3818508 272.16752706 -0.39923088 282.71316579 -0.43166587 C289.93826216 -0.45276006 297.16327772 -0.45921164 304.38840267 -0.45400551 C308.56105408 -0.45143576 312.73343304 -0.45545884 316.90603638 -0.4768219 C320.72319673 -0.49622308 324.53990025 -0.49731239 328.3570812 -0.48359558 C329.74073246 -0.48189919 331.12441171 -0.48702816 332.5080075 -0.49953273 C334.38374966 -0.51550462 336.25966392 -0.50457595 338.1354332 -0.49219131 C339.7006404 -0.49446964 339.7006404 -0.49446964 341.29746795 -0.49679399 C344.66129388 0.1215626 345.8520564 1.4105271 348 4 C344.04 3.505 344.04 3.505 340 3 C340 2.34 340 1.68 340 1 C227.8 1 115.6 1 0 1 C0 0.67 0 0.34 0 0 Z " fill="#CF7F64" transform="translate(86,82)"/>
<path d="M0 0 C1.23921379 -0.00170885 2.47842757 -0.0034177 3.75519329 -0.00517833 C7.18273895 -0.00789761 10.61005492 -0.00166772 14.03757274 0.00837779 C17.73823398 0.01703035 21.43888837 0.01409085 25.13955688 0.01257324 C31.54719147 0.01152553 37.95478527 0.01779022 44.36240959 0.02904892 C53.62670507 0.04531641 62.89098085 0.0505132 72.15528906 0.0530249 C87.18671288 0.05740004 102.21811496 0.07070424 117.24952698 0.08963013 C131.84946077 0.1079936 146.44938865 0.12214782 161.04933167 0.13064575 C161.94956527 0.1311712 162.84979887 0.13169665 163.77731227 0.13223802 C168.29360731 0.13484813 172.80990239 0.13737553 177.3261975 0.13986182 C214.78185718 0.16058869 252.23749214 0.1958093 289.69313049 0.24050903 C289.69313049 0.57050903 289.69313049 0.90050903 289.69313049 1.24050903 C288.743466 1.24083509 288.743466 1.24083509 287.77461636 1.24116772 C250.23865842 1.25468806 212.70281119 1.29419112 175.16692043 1.36736466 C170.65840487 1.37613125 166.14988891 1.38468108 161.64137268 1.39309692 C160.74382074 1.39477599 159.8462688 1.39645505 158.92151831 1.39818499 C144.39474992 1.4248437 129.86802099 1.43394926 115.34123065 1.43655046 C100.43174361 1.43961156 85.52237052 1.46157639 70.61293495 1.5010336 C61.41541206 1.52478035 52.21811677 1.53384003 43.02056746 1.52402214 C36.7106368 1.51870014 30.40090979 1.53176549 24.09103711 1.55917194 C20.4522719 1.57443731 16.81396257 1.58170846 13.17518425 1.56710625 C9.22412282 1.55146354 5.27381364 1.57459926 1.32279968 1.60127258 C-0.39027085 1.58526269 -0.39027085 1.58526269 -2.13794887 1.56892937 C-12.45311894 1.69867498 -19.79388854 5.32065814 -27.30686951 12.24050903 C-25.86609905 8.87871129 -24.0593693 6.64894635 -21.30686951 4.24050903 C-20.64686951 4.24050903 -19.98686951 4.24050903 -19.30686951 4.24050903 C-19.30686951 3.58050903 -19.30686951 2.92050903 -19.30686951 2.24050903 C-12.86462407 -0.0831173 -6.79963035 -0.03430614 0 0 Z " fill="#D79878" transform="translate(117.30686950683594,102.75949096679688)"/>
<path d="M0 0 C0.66 0.33 1.32 0.66 2 1 C-0.05233685 3.2477975 -1.00667261 4.0022242 -4 5 C-4.33 5.99 -4.66 6.98 -5 8 C-8.01807021 9.18187306 -11.01356662 9.12437456 -14.22425461 9.12304783 C-15.28768766 9.12503888 -16.35112072 9.12702993 -17.44677901 9.12908131 C-18.61408498 9.12616847 -19.78139095 9.12325563 -20.98406982 9.12025452 C-22.22480389 9.12110894 -23.46553795 9.12196337 -24.74387002 9.12284368 C-28.18953062 9.12420763 -31.63513461 9.12107616 -35.08078837 9.11606562 C-38.79581753 9.11175208 -42.5108449 9.11320819 -46.22587585 9.1139679 C-52.66301641 9.11449255 -59.10014684 9.11135179 -65.53728485 9.10573006 C-74.84433567 9.09760723 -84.15138159 9.09499903 -93.45843557 9.09374207 C-108.55806789 9.09155278 -123.65769482 9.08489603 -138.75732422 9.07543945 C-153.42626926 9.06626215 -168.09521283 9.05918287 -182.76416016 9.05493164 C-183.66816892 9.05466892 -184.57217769 9.05440619 -185.50358066 9.05413551 C-190.0386717 9.05283048 -194.57376276 9.05156677 -199.10885382 9.05032361 C-236.73923969 9.03995483 -274.36961942 9.02233986 -312 9 C-312 8.67 -312 8.34 -312 8 C-162.015 7.505 -162.015 7.505 -9 7 C-9 6.34 -9 5.68 -9 5 C-7.54735962 4.1361871 -6.0876837 3.28419546 -4.625 2.4375 C-3.81289063 1.96183594 -3.00078125 1.48617188 -2.1640625 0.99609375 C-1.44992187 0.66738281 -0.73578125 0.33867187 0 0 Z " fill="#D59071" transform="translate(419,383)"/>
<path d="M0 0 C0.33 0 0.66 0 1 0 C1 96.03 1 192.06 1 291 C0.34 291 -0.32 291 -1 291 C-1.0928125 292.60875 -1.0928125 292.60875 -1.1875 294.25 C-2 298 -2 298 -4.5625 300.4375 C-5.7690625 301.2109375 -5.7690625 301.2109375 -7 302 C-6.56968664 300.96627888 -6.56968664 300.96627888 -6.13068008 299.9116745 C-0.18608495 284.60343098 -0.42012993 269.6053672 -0.45410156 253.38867188 C-0.44756057 250.61785598 -0.43503835 247.84707439 -0.42277527 245.07627869 C-0.39959575 239.1402479 -0.3907088 233.20433883 -0.39188385 227.26826477 C-0.39356151 218.68601841 -0.37313325 210.10393308 -0.34752855 201.52172989 C-0.30656444 187.59343324 -0.28316446 173.66516581 -0.27099609 159.73681641 C-0.25914654 146.21693113 -0.23890934 132.69710073 -0.20751953 119.17724609 C-0.20558343 118.34210391 -0.20364733 117.50696173 -0.20165256 116.64651221 C-0.19188715 112.45631801 -0.18195819 108.26612422 -0.17194796 104.0759306 C-0.08928114 69.38397861 -0.0351976 34.69203141 0 0 Z " fill="#DAA37F" transform="translate(449,108)"/>
<path d="M0 0 C0.98327417 3.0825485 0.95880393 4.93666271 0.07837296 8.03084469 C-1.25754048 13.54705995 -1.27816855 18.85287364 -1.25396729 24.50648499 C-1.25708727 25.63559073 -1.26020725 26.76469648 -1.26342177 27.92801756 C-1.27137241 31.69563643 -1.2650895 35.46309293 -1.25878906 39.23071289 C-1.26040041 41.93824088 -1.26498974 44.64576207 -1.26940918 47.35328674 C-1.27828396 53.93410553 -1.27638981 60.51487859 -1.2705839 67.09569914 C-1.26606025 72.44534353 -1.26545754 77.79497514 -1.26763153 83.1446209 C-1.267938 83.90709141 -1.26824446 84.66956192 -1.26856022 85.45513759 C-1.26919969 87.00424994 -1.26984812 88.55336228 -1.2705054 90.10247462 C-1.27620298 104.61462072 -1.26965958 119.12674152 -1.25890467 133.63888346 C-1.24996787 146.08291739 -1.25152336 158.52691401 -1.26074219 170.97094727 C-1.27145182 185.43404757 -1.2756556 199.89712572 -1.26951766 214.36022943 C-1.26888058 215.90321791 -1.26825184 217.44620639 -1.26763153 218.98919487 C-1.26732298 219.74830872 -1.26701443 220.50742256 -1.26669653 221.28953986 C-1.2649718 226.63142273 -1.26787985 231.97329151 -1.27259064 237.3151722 C-1.27820709 243.82695608 -1.27666687 250.33869175 -1.26602915 256.85047013 C-1.26078297 260.17098134 -1.25977932 263.49134593 -1.26532745 266.81186676 C-1.27079249 270.41482414 -1.26393683 274.01755566 -1.25396729 277.62049866 C-1.25842873 278.66495858 -1.26289017 279.7094185 -1.26748681 280.78552872 C-1.2364979 286.55964528 -0.58367779 291.44995483 1 297 C1.125 300 1.125 300 1 302 C-1.55625283 299.77717145 -2.38291163 298.3068964 -3 295 C-3.09041326 293.35121913 -3.12905094 291.69922609 -3.13142776 290.04796982 C-3.13526891 289.04520468 -3.13911005 288.04243955 -3.1430676 287.0092876 C-3.14220112 285.90969376 -3.14133463 284.81009992 -3.14044189 283.67718506 C-3.14341302 282.50743236 -3.14638414 281.33767966 -3.1494453 280.13247991 C-3.15662479 276.88470205 -3.15930455 273.63695642 -3.16004276 270.38917184 C-3.1618943 266.88666457 -3.16944214 263.38416874 -3.17617798 259.88166809 C-3.18975784 252.22252275 -3.19578548 244.56338264 -3.20018864 236.90422726 C-3.20295165 232.12140479 -3.20718911 227.33858435 -3.21169281 222.55576324 C-3.22388503 209.31234743 -3.23418443 196.06893324 -3.2375679 182.82551193 C-3.23778747 181.97796048 -3.23800703 181.13040903 -3.23823325 180.25717421 C-3.23845153 179.40760021 -3.23866981 178.55802621 -3.2388947 177.68270755 C-3.23933817 175.9611605 -3.23978473 174.23961345 -3.24023438 172.51806641 C-3.2404558 171.66412046 -3.24067723 170.81017451 -3.24090537 169.93035141 C-3.24485311 156.09438601 -3.26230661 142.25847329 -3.2855939 128.42252824 C-3.30931208 114.21584497 -3.32176997 100.00918814 -3.32293582 85.80248475 C-3.32385232 77.82656374 -3.32959829 69.85071136 -3.34775543 61.87480927 C-3.36316272 55.08292366 -3.36827319 48.29112791 -3.36001733 41.49922815 C-3.35611303 38.03493571 -3.35702949 34.57082417 -3.37107468 31.10655403 C-3.38375017 27.34779646 -3.37794067 23.58950367 -3.36749268 19.83074951 C-3.37554908 18.74007856 -3.38360548 17.64940761 -3.39190602 16.52568603 C-3.35145601 10.30644942 -2.57283891 5.6795953 0 0 Z " fill="#DBA480" transform="translate(65,100)"/>
<path d="M0 0 C-1.051875 0.37125 -2.10375 0.7425 -3.1875 1.125 C-6.09013154 2.34808466 -7.74859142 3.58433247 -9.6875 6.0625 C-12 9 -12 9 -14.1875 9.9375 C-16.68441872 11.40121097 -16.89293463 13.17001331 -17.60007358 15.86809552 C-18.35221753 19.87758067 -18.28708859 23.88542365 -18.2784729 27.95310974 C-18.2842653 28.93914328 -18.2900577 29.92517682 -18.29602563 30.94109017 C-18.31299384 34.23606943 -18.31589943 37.53090835 -18.31884766 40.82592773 C-18.32814801 43.19146568 -18.33831684 45.55700035 -18.34928894 47.92253113 C-18.37659079 54.33926038 -18.39173898 60.75596768 -18.40471697 67.17273974 C-18.41782015 73.20083655 -18.44189739 79.22889569 -18.46498732 85.25696064 C-18.51041431 97.19366818 -18.547046 109.13038578 -18.578125 121.06713867 C-18.60832733 132.65993004 -18.64268532 144.25269687 -18.68261719 155.84545898 C-18.68507874 156.56049886 -18.68754028 157.27553873 -18.69007643 158.01224648 C-18.70245135 161.59952938 -18.71490782 165.18681199 -18.72740483 168.77409446 C-18.83091131 198.51602812 -18.91998786 228.25799347 -19 258 C-19.33 258 -19.66 258 -20 258 C-20.06843353 227.14538024 -20.12152682 196.29077782 -20.15319599 165.4361003 C-20.15694812 161.79366309 -20.16083109 158.15122604 -20.16479492 154.50878906 C-20.16558185 153.78364354 -20.16636878 153.05849801 -20.16717956 152.31137837 C-20.18023451 140.56896307 -20.20388884 128.82659181 -20.23145839 117.08420263 C-20.25951012 105.03598419 -20.27617577 92.98778883 -20.28226548 80.93953907 C-20.28601294 74.17198095 -20.29502842 67.40451469 -20.31719017 60.63698959 C-20.33752675 54.26935473 -20.34383947 47.90186111 -20.33932304 41.53419685 C-20.34014951 39.19527609 -20.34613185 36.85635068 -20.35761642 34.51745796 C-20.37251595 31.32704658 -20.36896255 28.13717029 -20.36076355 24.94674683 C-20.36950207 24.01872344 -20.3782406 23.09070005 -20.38724393 22.13455474 C-20.34331385 15.82128435 -19.33398478 11.49302242 -14.87890625 6.734375 C-14.11449219 6.07953125 -13.35007812 5.4246875 -12.5625 4.75 C-11.80066406 4.08484375 -11.03882812 3.4196875 -10.25390625 2.734375 C-6.61824744 -0.063255 -4.48854012 -1.60305004 0 0 Z " fill="#B53128" transform="translate(105,107)"/>
<path d="M0 0 C0 0.66 0 1.32 0 2 C8.25 2 16.5 2 25 2 C22 5 22 5 18.84765625 5.3984375 C9.19662547 5.3386788 0.79437381 4.03876115 -8.375 0.8125 C-16.80137079 -1.07616931 -24.34765889 -1.0209 -32 3 C-34.7594775 3.34608832 -37.20155262 3.14474728 -40 3 C-40 3.66 -40 4.32 -40 5 C-42.77245014 5.13487595 -45.53837088 5.23400807 -48.3125 5.3125 C-49.49102539 5.3753418 -49.49102539 5.3753418 -50.69335938 5.43945312 C-52.90336375 5.48647449 -54.84148911 5.48367587 -57 5 C-59.04296875 2.48046875 -59.04296875 2.48046875 -60 0 C-59.01 0.33 -58.02 0.66 -57 1 C-48.63537968 3.33276264 -40.38530386 1.43163724 -32 0 C-32 -0.66 -32 -1.32 -32 -2 C-20.53662947 -3.3658484 -11.17713888 -3.2263906 0 0 Z " fill="#CB7559" transform="translate(273,334)"/>
<path d="M0 0 C1.98 0.66 3.96 1.32 6 2 C6 2.66 6 3.32 6 4 C50.22 4 94.44 4 140 4 C140 4.33 140 4.66 140 5 C122.48456081 5.07008201 104.96916537 5.12298419 87.45361805 5.15543652 C79.32083766 5.17090522 71.18814439 5.19199477 63.05541992 5.22631836 C55.96690983 5.25622065 48.87846283 5.27557498 41.78989142 5.28226548 C38.03654812 5.28617635 34.28338532 5.29536738 30.53009987 5.31719017 C26.34005349 5.34135481 22.15032091 5.34196946 17.96020508 5.34057617 C16.71583176 5.351362 15.47145844 5.36214783 14.18937683 5.3732605 C13.04659271 5.36913651 11.90380859 5.36501251 10.72639465 5.36076355 C9.24000347 5.36491162 9.24000347 5.36491162 7.72358418 5.36914349 C4.50338502 4.93269083 2.5902958 3.93773622 0 2 C0 1.34 0 0.68 0 0 Z " fill="#B22821" transform="translate(79,418)"/>
<path d="M0 0 C0.66 0 1.32 0 2 0 C1.98428955 0.66418945 1.9685791 1.32837891 1.95239258 2.01269531 C1.32478925 19.27785024 1.32478925 19.27785024 5 36 C-0.63137873 30.58565209 -1.78686104 25.31730313 -2.16796875 17.59765625 C-2.20241144 11.36352873 -2.23278281 5.86105487 0 0 Z " fill="#C45F49" transform="translate(211,176)"/>
<path d="M0 0 C6.47450047 -0.30830955 12.16489668 -0.08184098 18 3 C20.00094825 4.86949909 21.38975976 6.75542269 23 9 C23.66 9.33 24.32 9.66 25 10 C25.625 13.0625 25.625 13.0625 26 16 C23.99099243 14.09672967 22.49170264 12.28240373 20.875 10 C17.60957764 6.11627282 13.92812012 4.83685059 9 4 C4.65260106 3.77994044 0.34803777 3.81855175 -4 4 C-3.67 3.34 -3.34 2.68 -3 2 C-2.01 2 -1.02 2 0 2 C0 1.34 0 0.68 0 0 Z " fill="#CF8061" transform="translate(251,228)"/>
<path d="M0 0 C2.44969175 2.08944297 3.21626425 3.75584338 4.125 6.8125 C3.65191406 6.51214844 3.17882812 6.21179688 2.69140625 5.90234375 C-1.81593792 3.3104012 -5.36605153 2.08165598 -10.5625 2.9296875 C-16.22047197 5.08965653 -20.5779722 9.8669583 -23.875 14.8125 C-23.34970631 10.7036959 -22.20692009 8.55730159 -19.4375 5.5 C-18.82003906 4.80261719 -18.20257813 4.10523438 -17.56640625 3.38671875 C-15.875 1.8125 -15.875 1.8125 -13.875 1.8125 C-13.875 1.1525 -13.875 0.4925 -13.875 -0.1875 C-9.03216194 -1.80177935 -4.68271323 -1.93416416 0 0 Z " fill="#D18666" transform="translate(289.875,161.1875)"/>
<path d="M0 0 C1.65 0 3.3 0 5 0 C0.77614544 3.44165927 -2.50060584 5 -8 5 C-8 5.66 -8 6.32 -8 7 C-10.77245014 7.13487595 -13.53837088 7.23400807 -16.3125 7.3125 C-17.49102539 7.3753418 -17.49102539 7.3753418 -18.69335938 7.43945312 C-20.90336375 7.48647449 -22.84148911 7.48367587 -25 7 C-27.04296875 4.48046875 -27.04296875 4.48046875 -28 2 C-27.01 2.33 -26.02 2.66 -25 3 C-16.63537968 5.33276264 -8.38530386 3.43163724 0 2 C0 1.34 0 0.68 0 0 Z " fill="#D99C78" transform="translate(241,332)"/>
<path d="M0 0 C0.33 0 0.66 0 1 0 C0.88382356 1.37577361 0.75654223 2.75061045 0.625 4.125 C0.55539062 4.89070312 0.48578125 5.65640625 0.4140625 6.4453125 C0 9 0 9 -1.0234375 11.8515625 C-3.77805687 20.73245536 -2.33765204 31.12944537 0 40 C-2.44297359 37.92597146 -3.85594081 36.71286514 -4.50170898 33.51733398 C-4.49985596 32.60282471 -4.49800293 31.68831543 -4.49609375 30.74609375 C-4.49673828 29.72580078 -4.49738281 28.70550781 -4.49804688 27.65429688 C-4.47806641 26.59275391 -4.45808594 25.53121094 -4.4375 24.4375 C-4.44458984 23.40302734 -4.45167969 22.36855469 -4.45898438 21.30273438 C-4.32074653 4.32074653 -4.32074653 4.32074653 0 0 Z " fill="#C97055" transform="translate(265,176)"/>
<path d="M0 0 C3.2194242 3.01171941 4.87384143 4.88732102 5.14526367 9.43261719 C5.1698843 12.53852313 5.18565995 15.64398887 5.1875 18.75 C5.19974609 19.8225 5.21199219 20.895 5.22460938 22 C5.23520082 27.73350338 4.95409065 32.59342509 3 38 C2.67 38 2.34 38 2 38 C1.97287934 36.56260487 1.95354933 35.12506137 1.9375 33.6875 C1.92589844 32.88699219 1.91429687 32.08648437 1.90234375 31.26171875 C2 29 2 29 3 26 C3.63238131 16.86695453 2.68702986 8.73284704 0 0 Z " fill="#D28A69" transform="translate(296,169)"/>
<path d="M0 0 C2.8125 2.3125 2.8125 2.3125 5 5 C6.31175986 6.02813611 7.6369893 7.04084432 9 8 C8.67 8.99 8.34 9.98 8 11 C8 10.34 8 9.68 8 9 C7.401875 8.731875 6.80375 8.46375 6.1875 8.1875 C4 7 4 7 2.8125 5.4375 C-0.02962731 3.18339903 -2.64111407 3.71489305 -6.1875 3.8125 C-8.09595703 3.85310547 -8.09595703 3.85310547 -10.04296875 3.89453125 C-11.50669922 3.94673828 -11.50669922 3.94673828 -13 4 C-13 3.34 -13 2.68 -13 2 C-8.70859481 -0.42303831 -4.84652621 -0.86855308 0 0 Z " fill="#BD4B39" transform="translate(328,210)"/>
<path d="M0 0 C12.2890625 11.91666667 12.2890625 11.91666667 14 18 C14.66 18 15.32 18 16 18 C15.67 19.32 15.34 20.64 15 22 C15 21.34 15 20.68 15 20 C14.01 19.67 13.02 19.34 12 19 C10.71875 17.546875 10.71875 17.546875 9.5 15.75 C9.06816406 15.1209375 8.63632812 14.491875 8.19140625 13.84375 C7.22244723 12.34424621 6.31946843 10.80226444 5.4375 9.25 C4.12089282 6.88109135 4.12089282 6.88109135 1.8125 5.4375 C1.214375 4.963125 0.61625 4.48875 0 4 C0 2.68 0 1.36 0 0 Z " fill="#D69571" transform="translate(291,268)"/>
<path d="M0 0 C0.33 0 0.66 0 1 0 C1.04898437 1.12277344 1.09796875 2.24554688 1.1484375 3.40234375 C1.52202856 11.13386692 1.95321159 18.49510917 4 26 C0.27591996 23.51727997 0.04218109 22.28726627 -1 18 C-1.23898729 15.24234838 -1.23562646 12.51600474 -1.1875 9.75 C-1.18685547 9.03070313 -1.18621094 8.31140625 -1.18554688 7.5703125 C-1.14098214 2.28196429 -1.14098214 2.28196429 0 0 Z " fill="#D5936F" transform="translate(300,237)"/>
<path d="M0 0 C0 4.09713147 -1.4337515 6.10902674 -3.8671875 9.32421875 C-7.97943215 12.55526812 -13.05124307 11.57655421 -18 11 C-18 10.01 -18 9.02 -18 8 C-18.66 7.67 -19.32 7.34 -20 7 C-18.68 7 -17.36 7 -16 7 C-16 7.66 -16 8.32 -16 9 C-10.33870045 8.45177139 -6.16348338 7.88293094 -2.375 3.375 C-1.55759111 2.26856255 -0.75595671 1.14930003 0 0 Z " fill="#CF8061" transform="translate(246,216)"/>
<path d="M0 0 C2.44687039 2.44687039 2.96036711 4.1119676 3.11352539 7.54370117 C3.10828857 8.53345947 3.10305176 9.52321777 3.09765625 10.54296875 C3.09443359 11.61611328 3.09121094 12.68925781 3.08789062 13.79492188 C3.07951172 14.91447266 3.07113281 16.03402344 3.0625 17.1875 C3.05798828 18.31865234 3.05347656 19.44980469 3.04882812 20.61523438 C3.03703498 23.41020927 3.0205765 26.2050782 3 29 C2.01 29 1.02 29 0 29 C0.0721875 28.42894531 0.144375 27.85789063 0.21875 27.26953125 C1.26115245 18.16298766 1.70565195 9.0426627 0 0 Z " fill="#D69471" transform="translate(336,221)"/>
<path d="M0 0 C0.66 0.33 1.32 0.66 2 1 C1.50628906 1.54269531 1.01257813 2.08539063 0.50390625 2.64453125 C-0.13675781 3.35996094 -0.77742187 4.07539063 -1.4375 4.8125 C-2.07558594 5.52019531 -2.71367187 6.22789062 -3.37109375 6.95703125 C-5.91072592 10.14222939 -6.14923956 12.94636113 -6.31640625 16.88671875 C-6.35830078 17.82451172 -6.40019531 18.76230469 -6.44335938 19.72851562 C-6.48267578 20.70498047 -6.52199219 21.68144531 -6.5625 22.6875 C-6.60568359 23.67556641 -6.64886719 24.66363281 -6.69335938 25.68164062 C-6.79941654 28.12095546 -6.90147714 30.56037113 -7 33 C-7.33 33 -7.66 33 -8 33 C-8.11709643 29.47945086 -8.1875469 25.95940888 -8.25 22.4375 C-8.28351563 21.44685547 -8.31703125 20.45621094 -8.3515625 19.43554688 C-8.45532419 11.62747964 -7.13103163 7.39195093 -1.75 1.5625 C-1.1725 1.046875 -0.595 0.53125 0 0 Z " fill="#E5C194" transform="translate(182,214)"/>
<path d="M0 0 C-1.051875 0.37125 -2.10375 0.7425 -3.1875 1.125 C-6.09013154 2.34808466 -7.74859142 3.58433247 -9.6875 6.0625 C-12 9 -12 9 -14.125 9.875 C-17.348598 11.8091588 -17.93642974 15.5353393 -19 19 C-19.86344922 16.15426596 -20.06009363 15.18886568 -19.125 12.25 C-15.28364581 6.37498771 -7.72986065 -2.76066452 0 0 Z " fill="#BF4F3F" transform="translate(105,107)"/>
<path d="M0 0 C0.33 0 0.66 0 1 0 C1.05447822 2.52113092 1.09389852 5.0410585 1.125 7.5625 C1.14175781 8.26697266 1.15851563 8.97144531 1.17578125 9.69726562 C1.22022044 14.51891822 0.52768004 18.42297438 -1 23 C-1.66 23 -2.32 23 -3 23 C-3.12375 23.61875 -3.2475 24.2375 -3.375 24.875 C-4 27 -4 27 -6 29 C-6.99 28.67 -7.98 28.34 -9 28 C-8.36771484 27.34644531 -8.36771484 27.34644531 -7.72265625 26.6796875 C-4.23634805 22.88986541 -2.26119037 20.35440266 -2 15 C-1.34 15 -0.68 15 0 15 C0 10.05 0 5.1 0 0 Z " fill="#B83D2F" transform="translate(213,240)"/>
<path d="M0 0 C2.97353707 5.03054251 2.368295 10.31415964 2.375 16 C2.39949219 17.093125 2.42398438 18.18625 2.44921875 19.3125 C2.45308594 20.364375 2.45695313 21.41625 2.4609375 22.5 C2.46915527 23.4590625 2.47737305 24.418125 2.48583984 25.40625 C1.86983721 28.69489926 0.51802916 29.88428166 -2 32 C-1.8570752 31.41299316 -1.71415039 30.82598633 -1.56689453 30.22119141 C-0.06596795 23.52404388 0.24380924 17.22024005 0.125 10.375 C0.11597656 9.37082031 0.10695312 8.36664063 0.09765625 7.33203125 C0.07437746 4.88775874 0.04168487 2.44401592 0 0 Z " fill="#CA7256" transform="translate(249,184)"/>
<path d="M0 0 C0.33 0 0.66 0 1 0 C1.08761663 3.54150893 1.14059739 7.08273633 1.1875 10.625 C1.22520508 12.12353516 1.22520508 12.12353516 1.26367188 13.65234375 C1.31985439 19.30805032 1.11368953 23.21096571 -2 28 C-2.625 26.3125 -2.625 26.3125 -3 24 C-2.690625 23.3296875 -2.38125 22.659375 -2.0625 21.96875 C-0.55041871 17.74381698 -0.53453247 13.64443833 -0.375 9.1875 C-0.33632813 8.30384766 -0.29765625 7.42019531 -0.2578125 6.50976562 C-0.16399216 4.34017028 -0.08092674 2.17011453 0 0 Z " fill="#D69471" transform="translate(310,299)"/>
<path d="M0 0 C1.59521484 -0.03867188 1.59521484 -0.03867188 3.22265625 -0.078125 C4.11855469 0.03015625 5.01445312 0.1384375 5.9375 0.25 C6.5975 1.24 7.2575 2.23 7.9375 3.25 C7.21304687 3.14300781 6.48859375 3.03601563 5.7421875 2.92578125 C-0.1573939 2.19423316 -3.90542121 1.85387494 -9.0625 5.25 C-10.39583333 5.91666667 -11.72916667 6.58333333 -13.0625 7.25 C-9.23633244 1.04896981 -7.17072659 0.10455494 0 0 Z " fill="#DCA67E" transform="translate(323.0625,212.75)"/>
<path d="M0 0 C0.66 0.33 1.32 0.66 2 1 C-0.05233685 3.2477975 -1.00667261 4.0022242 -4 5 C-4.33 5.99 -4.66 6.98 -5 8 C-9.455 8.495 -9.455 8.495 -14 9 C-14 8.34 -14 7.68 -14 7 C-12.35 7 -10.7 7 -9 7 C-9 6.34 -9 5.68 -9 5 C-7.54735962 4.1361871 -6.0876837 3.28419546 -4.625 2.4375 C-3.81289063 1.96183594 -3.00078125 1.48617188 -2.1640625 0.99609375 C-1.44992187 0.66738281 -0.73578125 0.33867187 0 0 Z " fill="#CF8165" transform="translate(419,383)"/>
<path d="M0 0 C5.61 0 11.22 0 17 0 C13.85638265 3.14361735 12.40027299 3.65822187 8.07421875 4.08203125 C4.90452731 3.95667622 2.6457606 2.65360037 0 1 C0 0.67 0 0.34 0 0 Z " fill="#D69470" transform="translate(188,267)"/>
<path d="M0 0 C1.45599609 0.24556641 1.45599609 0.24556641 2.94140625 0.49609375 C7.28276888 1.11628841 11.55997771 1.11126417 15.9375 1.0625 C16.71673828 1.05798828 17.49597656 1.05347656 18.29882812 1.04882812 C20.19925268 1.03716908 22.09963706 1.01923877 24 1 C24 1.66 24 2.32 24 3 C20.75017 3.08728882 17.5006425 3.14048658 14.25 3.1875 C12.86941406 3.22520508 12.86941406 3.22520508 11.4609375 3.26367188 C10.57148438 3.27333984 9.68203125 3.28300781 8.765625 3.29296875 C7.94868164 3.3086792 7.13173828 3.32438965 6.29003906 3.34057617 C3.48759373 2.92379459 2.11152979 1.83804852 0 0 Z " fill="#B6372C" transform="translate(273,337)"/>
<path d="M0 0 C0.8353125 0.2165625 0.8353125 0.2165625 1.6875 0.4375 C4.11384195 1.02769128 6.54906345 1.523429 9 2 C9 2.33 9 2.66 9 3 C8.26394531 3.09796875 7.52789062 3.1959375 6.76953125 3.296875 C-0.86794593 4.45493542 -0.86794593 4.45493542 -7 9 C-5.79618552 6.50638429 -4.54571278 4.31856917 -3 2 C-2.01 2 -1.02 2 0 2 C0 1.34 0 0.68 0 0 Z " fill="#C4624A" transform="translate(184,210)"/>
<path d="M0 0 C0 3.31246505 -0.55697235 4.36108136 -2.25 7.125 C-2.87648437 8.18074219 -2.87648437 8.18074219 -3.515625 9.2578125 C-5.26426684 11.31016581 -6.37417256 11.629691 -9 12 C-7.54718935 6.67302761 -3.91888622 3.63597198 0 0 Z " fill="#D38D6B" transform="translate(225,262)"/>
<path d="M0 0 C9.21605839 -0.31240876 9.21605839 -0.31240876 13 2 C15.3125 5.125 15.3125 5.125 17 8 C15.00100837 7.00718233 13.00989505 6.0052131 11.03515625 4.96484375 C7.37457822 3.05844371 4.1522978 1.51903723 0 1 C0 0.67 0 0.34 0 0 Z " fill="#DBA47D" transform="translate(186,213)"/>
<path d="M0 0 C0.33 0 0.66 0 1 0 C0.5547115 5.27315333 -0.08373163 10.01770224 -2 15 C-2.33 15 -2.66 15 -3 15 C-3.3152595 9.01006953 -2.68219822 5.36439644 0 0 Z " fill="#D38E6C" transform="translate(265,176)"/>
<path d="M0 0 C0.66 0.33 1.32 0.66 2 1 C0.92492371 2.29854721 -0.16043736 3.58858361 -1.25 4.875 C-1.85328125 5.59429687 -2.4565625 6.31359375 -3.078125 7.0546875 C-4.97087634 8.97052118 -6.53657727 9.96449045 -9 11 C-7.59155282 7.78475695 -5.89655214 5.67816132 -3.375 3.25 C-2.74335938 2.63640625 -2.11171875 2.0228125 -1.4609375 1.390625 C-0.73777344 0.70226562 -0.73777344 0.70226562 0 0 Z " fill="#E0B389" transform="translate(245,232)"/>
<path d="M0 0 C1.485 0.99 1.485 0.99 3 2 C3 2.66 3 3.32 3 4 C3.66 4 4.32 4 5 4 C6.48320272 7.83887763 7.22419163 10.06204091 6 14 C5.7525 12.72125 5.505 11.4425 5.25 10.125 C4.48009414 6.73252682 4.48009414 6.73252682 1.875 4.5 C1.25625 4.335 0.6375 4.17 0 4 C0 2.68 0 1.36 0 0 Z " fill="#CE7E5F" transform="translate(242,170)"/>
<path d="M0 0 C0.33 0.66 0.66 1.32 1 2 C0.00390625 4.1640625 0.00390625 4.1640625 -1.4375 6.625 C-1.91058594 7.44226563 -2.38367188 8.25953125 -2.87109375 9.1015625 C-3.24363281 9.72804688 -3.61617187 10.35453125 -4 11 C-4.65234375 9.234375 -4.65234375 9.234375 -5 7 C-4.00390625 5.078125 -4.00390625 5.078125 -2.5625 3.25 C-2.08941406 2.63640625 -1.61632812 2.0228125 -1.12890625 1.390625 C-0.75636719 0.93171875 -0.38382813 0.4728125 0 0 Z " fill="#D89C77" transform="translate(231,251)"/>
<path d="M0 0 C0 0.33 0 0.66 0 1 C-1.5778125 1.1546875 -1.5778125 1.1546875 -3.1875 1.3125 C-6.90212333 1.98235011 -8.867691 3.03112006 -12 5 C-12.66 4.67 -13.32 4.34 -14 4 C-10.36515075 -1.28705346 -5.79646176 -0.3982302 0 0 Z " fill="#E0B48A" transform="translate(232,162)"/>
<path d="M0 0 C2 1 2 1 2.8515625 3.06640625 C3.10679687 3.89011719 3.36203125 4.71382812 3.625 5.5625 C3.88539063 6.38878906 4.14578125 7.21507812 4.4140625 8.06640625 C4.60742188 8.70449219 4.80078125 9.34257812 5 10 C4.34 10 3.68 10 3 10 C0.96564469 6.27034861 0 4.33094958 0 0 Z " fill="#D5926F" transform="translate(281,251)"/>
<path d="M0 0 C0.8125 1.625 0.8125 1.625 1 4 C-0.46818136 6.24609835 -2.15852858 8.02378677 -4 10 C-4.33 9.34 -4.66 8.68 -5 8 C-4.06553465 5.96855359 -3.06775224 3.96466413 -2 2 C-1.34 2 -0.68 2 0 2 C0 1.34 0 0.68 0 0 Z " fill="#CD7A60" transform="translate(447,400)"/>
</svg>
